<svg aria-hidden="true" style="position: absolute; width: 0; height: 0; overflow: hidden;" version="1.1" xmlns="http://www.w3.org/2000/svg" xmlns:xlink="http://www.w3.org/1999/xlink">
<defs>
<symbol id="Group" viewBox="0 0 36 32">
<path fill="#ff6b08" style="fill: var(--color1, #ff6b08)" d="M0 5.445v-2.807c0-1.163 0.947-2.109 2.111-2.109h31.778c1.164 0 2.111 0.946 2.111 2.109v2.807h-36z"></path>
<path fill="#ff6b08" style="fill: var(--color1, #ff6b08)" d="M36 7.61h-36v21.751c0 1.165 0.945 2.109 2.111 2.109h31.778c1.166 0 2.111-0.944 2.111-2.109v-21.751zM12.984 22.804c0.459 0.359 0.539 1.022 0.179 1.481-0.208 0.265-0.518 0.404-0.831 0.404-0.228 0-0.457-0.073-0.65-0.225l-4.364-3.419c-0.255-0.2-0.404-0.506-0.404-0.83s0.149-0.63 0.404-0.83l4.364-3.419c0.459-0.359 1.122-0.279 1.482 0.179s0.279 1.121-0.179 1.481l-3.304 2.589 3.304 2.589zM20.496 15.045l-2.916 10.886c-0.126 0.471-0.553 0.782-1.019 0.782-0.090 0-0.182-0.012-0.274-0.036-0.563-0.151-0.897-0.729-0.746-1.292l2.916-10.885c0.151-0.563 0.729-0.897 1.292-0.746s0.897 0.729 0.747 1.292zM28.682 21.046l-4.364 3.419c-0.193 0.151-0.423 0.225-0.65 0.225-0.313 0-0.623-0.139-0.831-0.404-0.36-0.458-0.279-1.121 0.179-1.481l3.304-2.589-3.304-2.589c-0.472-0.37-0.543-1.061-0.147-1.52 0.371-0.43 1.025-0.472 1.473-0.122l4.34 3.4c0.255 0.2 0.404 0.506 0.404 0.83s-0.149 0.63-0.404 0.83z"></path>
</symbol>
<symbol id="menu" viewBox="0 0 32 32">
<path d="M2 6h28v6h-28zM2 14h28v6h-28zM2 22h28v6h-28z"></path>
</symbol>
<symbol id="play" viewBox="0 0 32 32">
<path d="M6 4l20 12-20 12z"></path>
</symbol>
</defs>
</svg>
